<mxfile host="65bd71144e">
    <diagram id="OuoBcAqgurc7PPNdigt3" name="Page-1">
        <mxGraphModel dx="1038" dy="650" grid="1" gridSize="10" guides="1" tooltips="1" connect="1" arrows="1" fold="1" page="1" pageScale="1" pageWidth="1100" pageHeight="850" math="0" shadow="0">
            <root>
                <mxCell id="0"/>
                <mxCell id="1" parent="0"/>
                <mxCell id="2" value="PC - client" style="verticalAlign=top;align=left;spacingTop=8;spacingLeft=2;spacingRight=12;shape=cube;size=10;direction=south;fontStyle=4;html=1;whiteSpace=wrap;fillColor=#f5f5f5;strokeColor=#666666;fontColor=#333333;" vertex="1" parent="1">
                    <mxGeometry x="40" y="110" width="180" height="220" as="geometry"/>
                </mxCell>
                <mxCell id="3" value="postman / curl" style="shape=module;align=left;spacingLeft=20;align=center;verticalAlign=top;whiteSpace=wrap;html=1;" vertex="1" parent="1">
                    <mxGeometry x="70" y="150" width="100" height="150" as="geometry"/>
                </mxCell>
                <mxCell id="6" value="vitibrasil-tech-challenge-NODE" style="verticalAlign=top;align=left;spacingTop=8;spacingLeft=2;spacingRight=12;shape=cube;size=10;direction=south;fontStyle=4;html=1;whiteSpace=wrap;fillColor=#dae8fc;strokeColor=#6c8ebf;" vertex="1" parent="1">
                    <mxGeometry x="400" y="110" width="220" height="320" as="geometry"/>
                </mxCell>
                <mxCell id="9" value="" style="edgeStyle=none;html=1;" edge="1" parent="1" source="7" target="8">
                    <mxGeometry relative="1" as="geometry"/>
                </mxCell>
                <mxCell id="7" value="vitibrasil-tech-challenge&lt;br&gt;FastAPI&lt;div&gt;scraper&lt;/div&gt;" style="shape=module;align=left;spacingLeft=20;align=center;verticalAlign=top;whiteSpace=wrap;html=1;" vertex="1" parent="1">
                    <mxGeometry x="420" y="150" width="150" height="150" as="geometry"/>
                </mxCell>
                <mxCell id="8" value="Banco-SQLite" style="shape=module;align=left;spacingLeft=20;align=center;verticalAlign=top;whiteSpace=wrap;html=1;" vertex="1" parent="1">
                    <mxGeometry x="420" y="360" width="150" height="50" as="geometry"/>
                </mxCell>
                <mxCell id="10" value="" style="rounded=0;orthogonalLoop=1;jettySize=auto;html=1;endArrow=halfCircle;endFill=0;endSize=6;strokeWidth=1;sketch=0;exitX=0;exitY=0;exitDx=10;exitDy=0;exitPerimeter=0;" edge="1" target="12" parent="1" source="7">
                    <mxGeometry relative="1" as="geometry">
                        <mxPoint x="390" y="205" as="sourcePoint"/>
                    </mxGeometry>
                </mxCell>
                <mxCell id="13" value="/auth/register" style="edgeLabel;html=1;align=center;verticalAlign=middle;resizable=0;points=[];" vertex="1" connectable="0" parent="10">
                    <mxGeometry x="0.4745" y="2" relative="1" as="geometry">
                        <mxPoint x="-28" y="-13" as="offset"/>
                    </mxGeometry>
                </mxCell>
                <mxCell id="11" value="" style="rounded=0;orthogonalLoop=1;jettySize=auto;html=1;endArrow=oval;endFill=0;sketch=0;sourcePerimeterSpacing=0;targetPerimeterSpacing=0;endSize=10;exitX=1;exitY=0;exitDx=0;exitDy=0;" edge="1" target="12" parent="1" source="3">
                    <mxGeometry relative="1" as="geometry">
                        <mxPoint x="350" y="205" as="sourcePoint"/>
                    </mxGeometry>
                </mxCell>
                <mxCell id="12" value="" style="ellipse;whiteSpace=wrap;html=1;align=center;aspect=fixed;fillColor=#d5e8d4;strokeColor=#82b366;resizable=0;perimeter=centerPerimeter;rotatable=0;allowArrows=0;points=[];outlineConnect=1;" vertex="1" parent="1">
                    <mxGeometry x="320" y="145" width="10" height="10" as="geometry"/>
                </mxCell>
                <mxCell id="14" value="" style="rounded=0;orthogonalLoop=1;jettySize=auto;html=1;endArrow=halfCircle;endFill=0;endSize=6;strokeWidth=1;sketch=0;exitX=0;exitY=0;exitDx=0;exitDy=35;exitPerimeter=0;" edge="1" target="16" parent="1" source="7">
                    <mxGeometry relative="1" as="geometry">
                        <mxPoint x="390" y="205" as="sourcePoint"/>
                    </mxGeometry>
                </mxCell>
                <mxCell id="17" value="/auth/login" style="edgeLabel;html=1;align=center;verticalAlign=middle;resizable=0;points=[];" vertex="1" connectable="0" parent="14">
                    <mxGeometry x="0.3878" y="-1" relative="1" as="geometry">
                        <mxPoint x="-29" y="-13" as="offset"/>
                    </mxGeometry>
                </mxCell>
                <mxCell id="15" value="" style="rounded=0;orthogonalLoop=1;jettySize=auto;html=1;endArrow=oval;endFill=0;sketch=0;sourcePerimeterSpacing=0;targetPerimeterSpacing=0;endSize=10;exitX=1;exitY=0.25;exitDx=0;exitDy=0;" edge="1" target="16" parent="1" source="3">
                    <mxGeometry relative="1" as="geometry">
                        <mxPoint x="350" y="205" as="sourcePoint"/>
                    </mxGeometry>
                </mxCell>
                <mxCell id="16" value="" style="ellipse;whiteSpace=wrap;html=1;align=center;aspect=fixed;fillColor=#d5e8d4;strokeColor=#82b366;resizable=0;perimeter=centerPerimeter;rotatable=0;allowArrows=0;points=[];outlineConnect=1;" vertex="1" parent="1">
                    <mxGeometry x="320" y="181" width="10" height="10" as="geometry"/>
                </mxCell>
                <mxCell id="18" value="" style="rounded=0;orthogonalLoop=1;jettySize=auto;html=1;endArrow=halfCircle;endFill=0;endSize=6;strokeWidth=1;sketch=0;exitX=0;exitY=0.5;exitDx=10;exitDy=0;exitPerimeter=0;" edge="1" target="20" parent="1" source="7">
                    <mxGeometry relative="1" as="geometry">
                        <mxPoint x="390" y="205" as="sourcePoint"/>
                    </mxGeometry>
                </mxCell>
                <mxCell id="21" value="&lt;span style=&quot;color: rgb(33, 33, 33); font-family: Inter, system-ui, -apple-system, BlinkMacSystemFont, &amp;quot;Segoe UI&amp;quot;, Roboto, Oxygen, Ubuntu, Cantarell, &amp;quot;Fira Sans&amp;quot;, &amp;quot;Droid Sans&amp;quot;, Helvetica, Arial, sans-serif; font-size: 12px; text-align: left; white-space: pre-wrap;&quot;&gt;/api/viticultura/dados&lt;/span&gt;" style="edgeLabel;html=1;align=center;verticalAlign=middle;resizable=0;points=[];rotation=0;" vertex="1" connectable="0" parent="18">
                    <mxGeometry x="0.5966" y="1" relative="1" as="geometry">
                        <mxPoint x="-16" y="-19" as="offset"/>
                    </mxGeometry>
                </mxCell>
                <mxCell id="19" value="" style="rounded=0;orthogonalLoop=1;jettySize=auto;html=1;endArrow=oval;endFill=0;sketch=0;sourcePerimeterSpacing=0;targetPerimeterSpacing=0;endSize=10;exitX=1;exitY=0.5;exitDx=0;exitDy=0;" edge="1" target="20" parent="1" source="3">
                    <mxGeometry relative="1" as="geometry">
                        <mxPoint x="350" y="205" as="sourcePoint"/>
                    </mxGeometry>
                </mxCell>
                <mxCell id="20" value="" style="ellipse;whiteSpace=wrap;html=1;align=center;aspect=fixed;fillColor=#f8cecc;strokeColor=#b85450;resizable=0;perimeter=centerPerimeter;rotatable=0;allowArrows=0;points=[];outlineConnect=1;" vertex="1" parent="1">
                    <mxGeometry x="316" y="220" width="10" height="10" as="geometry"/>
                </mxCell>
                <mxCell id="22" value="" style="rounded=0;orthogonalLoop=1;jettySize=auto;html=1;endArrow=halfCircle;endFill=0;endSize=6;strokeWidth=1;sketch=0;exitX=0;exitY=1;exitDx=10;exitDy=0;exitPerimeter=0;" edge="1" target="24" parent="1" source="7">
                    <mxGeometry relative="1" as="geometry">
                        <mxPoint x="270" y="205" as="sourcePoint"/>
                    </mxGeometry>
                </mxCell>
                <mxCell id="25" value="&lt;span style=&quot;color: rgb(33, 33, 33); font-family: Inter, system-ui, -apple-system, BlinkMacSystemFont, &amp;quot;Segoe UI&amp;quot;, Roboto, Oxygen, Ubuntu, Cantarell, &amp;quot;Fira Sans&amp;quot;, &amp;quot;Droid Sans&amp;quot;, Helvetica, Arial, sans-serif; font-size: 12px; text-align: left; white-space: pre-wrap;&quot;&gt;/api/viticultura/dados-especificos&lt;/span&gt;" style="edgeLabel;html=1;align=center;verticalAlign=middle;resizable=0;points=[];strokeOpacity=100;labelPadding=0;" vertex="1" connectable="0" parent="22">
                    <mxGeometry x="0.5" y="-4" relative="1" as="geometry">
                        <mxPoint x="-31" y="-18" as="offset"/>
                    </mxGeometry>
                </mxCell>
                <mxCell id="23" value="" style="rounded=0;orthogonalLoop=1;jettySize=auto;html=1;endArrow=oval;endFill=0;sketch=0;sourcePerimeterSpacing=0;targetPerimeterSpacing=0;endSize=10;exitX=1;exitY=1;exitDx=0;exitDy=0;" edge="1" target="24" parent="1" source="3">
                    <mxGeometry relative="1" as="geometry">
                        <mxPoint x="230" y="205" as="sourcePoint"/>
                    </mxGeometry>
                </mxCell>
                <mxCell id="24" value="" style="ellipse;whiteSpace=wrap;html=1;align=center;aspect=fixed;fillColor=#f8cecc;strokeColor=#b85450;resizable=0;perimeter=centerPerimeter;rotatable=0;allowArrows=0;points=[];outlineConnect=1;" vertex="1" parent="1">
                    <mxGeometry x="316" y="295" width="10" height="10" as="geometry"/>
                </mxCell>
                <mxCell id="26" value="Embrapa&lt;br&gt;Dados da Vitivinicultura" style="ellipse;shape=cloud;whiteSpace=wrap;html=1;align=center;fillColor=#e1d5e7;strokeColor=#9673a6;" vertex="1" parent="1">
                    <mxGeometry x="910" y="174" width="120" height="121" as="geometry"/>
                </mxCell>
                <mxCell id="27" value="" style="endArrow=open;endFill=1;endSize=12;html=1;exitX=1;exitY=0.5;exitDx=0;exitDy=0;entryX=0.07;entryY=0.4;entryDx=0;entryDy=0;entryPerimeter=0;" edge="1" parent="1" source="7" target="26">
                    <mxGeometry width="160" relative="1" as="geometry">
                        <mxPoint x="600" y="240" as="sourcePoint"/>
                        <mxPoint x="760" y="240" as="targetPoint"/>
                    </mxGeometry>
                </mxCell>
                <mxCell id="28" value="&lt;div style=&quot;font-family: Consolas, &amp;quot;Courier New&amp;quot;, monospace; font-size: 14px; line-height: 19px; white-space-collapse: preserve;&quot;&gt;&lt;span style=&quot;&quot;&gt;http://vitibrasil.cnpuv.embrapa.br/&lt;/span&gt;&lt;/div&gt;" style="edgeLabel;html=1;align=center;verticalAlign=middle;resizable=0;points=[];labelBackgroundColor=none;fontColor=#000000;" vertex="1" connectable="0" parent="27">
                    <mxGeometry x="-0.081" relative="1" as="geometry">
                        <mxPoint x="32" y="-11" as="offset"/>
                    </mxGeometry>
                </mxCell>
            </root>
        </mxGraphModel>
    </diagram>
</mxfile>